<?xml version="1.0" encoding="utf-8"?>
<!-- Generator: Adobe Illustrator 22.0.1, SVG Export Plug-In . SVG Version: 6.00 Build 0)  -->
<svg version="1.1" id="Layer_1" xmlns="http://www.w3.org/2000/svg" xmlns:xlink="http://www.w3.org/1999/xlink" x="0px" y="0px"
	 viewBox="0 0 1808 416" style="enable-background:new 0 0 1808 416;" xml:space="preserve">
<style type="text/css">
	.st0{fill:#020202;stroke:#FFFFFF;stroke-width:34;stroke-linecap:round;stroke-linejoin:round;stroke-miterlimit:10;}
	.st1{fill:#069347;stroke:#FFFFFF;stroke-width:34;stroke-linecap:round;stroke-linejoin:round;stroke-miterlimit:10;}
	.st2{fill:#ED1C24;stroke:#FFFFFF;stroke-width:34;stroke-linecap:round;stroke-linejoin:round;stroke-miterlimit:10;}
	.st3{fill:#020202;}
	.st4{fill:#069347;}
	.st5{fill:#ED1C24;}
</style>
<g>
	<g>
		
			<image style="overflow:visible;opacity:0.3;" width="7609" height="1745" xlink:href="E6D35942.png"  transform="matrix(0.24 0 0 0.24 -6.1225 -8.5076)">
		</image>
		<g>
			<g>
				<g>
					<path class="st0" d="M1565.2,99.3v15.1h-58.3v-12.5l18.7-19.3c16.1-16.5,20.4-22.1,20.4-30c0-5.7-3.7-12.1-11.8-12.1
						c-6.2,0-12.7,3.5-18.4,9.2l-10-11c11.2-10.3,19.5-13.4,28.8-13.4c18.3,0,29.6,11.3,29.6,27.2c0,11.1-8.2,20.2-22.7,36.4
						l-9.2,10.4H1565.2z"/>
					<path class="st0" d="M1605.3,25.1c23.4,0,32.1,20.7,32.3,44.8c0,23.9-8.9,46-32.4,46c-23.3-0.1-32.3-22.7-32.3-46
						C1572.9,45.1,1581.9,25.1,1605.3,25.1z M1605,101.2c11.8,0,15-14.1,15-31.4c0-18.1-3.4-30-14.7-30c-11.4,0-14.9,11.8-14.9,29.8
						C1590.4,87.1,1593.4,101.2,1605,101.2z"/>
					<path class="st0" d="M1705.8,99.3v15.1h-58.3v-12.5l18.7-19.3c16.1-16.5,20.4-22.1,20.4-30c0-5.7-3.7-12.1-11.8-12.1
						c-6.2,0-12.7,3.5-18.4,9.2l-10-11c11.2-10.3,19.5-13.4,28.8-13.4c18.3,0,29.6,11.3,29.6,27.2c0,11.1-8.2,20.2-22.7,36.4
						l-9.2,10.4H1705.8z"/>
					<path class="st0" d="M1745.9,25.1c23.4,0,32.1,20.7,32.3,44.8c0,23.9-8.9,46-32.4,46c-23.3-0.1-32.3-22.7-32.3-46
						C1713.6,45.1,1722.5,25.1,1745.9,25.1z M1745.6,101.2c11.8,0,15-14.1,15-31.4c0-18.1-3.4-30-14.7-30
						c-11.4,0-14.9,11.8-14.9,29.8C1731,87.1,1734,101.2,1745.6,101.2z"/>
				</g>
				<g>
					<polygon class="st0" points="18.9,96 152.6,88.7 237.1,96 248.8,191.1 240.2,243.6 185.2,253.6 192.8,184.4 186.6,140.4 
						62.3,144.9 25,149.7 					"/>
					<polygon class="st0" points="86,180.8 85.5,242.7 74.6,285.7 21.7,293.3 32.6,343.8 150.5,326.1 292,298.5 292,249.2 
						185.4,271.6 133.8,278.5 131.8,240.1 132.1,176.1 					"/>
					<polygon class="st0" points="280.5,94.8 288.7,236 287.5,371.1 338.9,366.4 349.2,224.4 346.6,160 347.7,87.4 					"/>
					<polygon class="st0" points="450.2,126.5 479.2,142.7 452.8,195.4 484.9,220.2 515,237.4 500.2,267 447.8,240.5 433.9,226.9 
						397.2,289.7 366.6,275.4 412.4,179.9 					"/>
					<polygon class="st0" points="541.4,126.5 536.8,243.5 532.4,276.3 568.5,271.1 577.5,234 625.7,225.9 630.5,208.1 629.7,184 
						576.8,195.5 586.2,125.3 					"/>
					<polygon class="st0" points="440.8,365.2 529,365.1 601.5,360.1 596.4,323.2 495.5,327.4 499.3,287.9 466.9,292.2 446.2,290.7 
						449.4,310.5 					"/>
					<polygon class="st0" points="715.2,149.7 791.1,141.7 899.6,145.7 899.6,194.4 880.2,280.1 927.7,280.1 958.4,147 958.4,80.6 
						799.1,80.6 705.4,95.7 					"/>
					<polygon class="st0" points="788.6,198.5 833.4,194.8 831.9,253.3 826.9,312.6 987.9,306.1 986.1,333.1 972.6,347.1 
						888.2,358.9 836.7,355 789.6,365.2 684.9,362.6 684.9,324 773.9,318.6 783.1,256.6 					"/>
					<polygon class="st0" points="1131.1,361.9 1083.5,362.7 1087.1,321.1 1087.2,286.9 998.8,285.1 1001.3,258.1 1011.9,248.7 
						1074.8,243.7 1112.9,248.5 1148.1,243.1 1225.6,249.1 1224,284.5 1136.8,284.7 1131.5,320.7 					"/>
					<polygon class="st0" points="1087.7,80.4 1095,131.4 1127.5,136.3 1128.6,108.2 1125.2,82.8 					"/>
					<polygon class="st0" points="1019.7,153.8 1054,155.2 1089.6,157.8 1020.2,203.5 1040,234.3 1087.6,209.3 1112.8,196.5 
						1195,227.9 1212.2,198.7 1134.1,158.5 1209.3,148.5 1209.3,116.2 1111.2,119.1 1019.7,119.1 					"/>
					<polygon class="st0" points="1736.1,134 1738.2,252.1 1734.1,361.5 1768.3,359.2 1778.6,244.9 1778.5,196.3 1780.9,130 					
						"/>
					<polygon class="st0" points="1715,343.3 1720,201 1724.6,151.7 1683.6,153.2 1684.4,212 1636.5,219 1639.8,241.7 1637.2,255.7 
						1676.8,256.2 1666.6,344.6 					"/>
					<polygon class="st0" points="1502.4,209.4 1528.2,209.4 1551.4,210.8 1496.6,298.8 1527.5,324.7 1553.5,286 1574.5,254.7 
						1627.8,319.9 1653.5,289.6 1592.6,209.8 1645,202 1645,156.8 1571.3,158.6 1502.4,160.8 					"/>
					<polygon class="st0" points="1271.3,304.7 1313.7,300.7 1389.2,302.7 1389.2,319.2 1378.4,362.1 1422.8,362.1 1440,295.6 
						1440,262.3 1318.2,262.3 1265.8,269.9 					"/>
					<polygon class="st0" points="1383.1,274.9 1335,276.5 1337.8,237.3 1337.3,241.8 1247.8,241.5 1249.9,216.1 1260.4,207.1 
						1323.9,201.3 1362.5,205.3 1398.1,199.6 1476.5,204 1475.6,237.3 1387.4,238.9 1382.7,236.2 					"/>
					<g>
						<path class="st0" d="M1466.4,165.6l-83.7-40c-5.3,10.7-12.9,23.2-23.6,37.2l84.6,30L1466.4,165.6z"/>
						<path class="st0" d="M1255,83.9v34.7l36.9,1.4l22.7,1.6c3.9-7.3,7.9-19,10.3-37.8H1255z"/>
						<path class="st0" d="M1459,113.4V81.1l-63.8,1.7c-0.1,6.4-1.8,20-11.2,39.8L1459,113.4z"/>
					</g>
					<path class="st1" d="M1372.5,44.7c-0.7-7.5-0.5-19.4-5.6-24.2c-8.3-7.8-21.8-3.3-27.1,5.8c-1.6,4.1,0,6.8,4.7,8.5
						c4.7,0.9,9.1-3.9,13.2-5.6c3.6,8.7,5.1,23.5-0.2,34.6c4.1,0.4,12.5,4.4,18.1,6.2C1373.2,63.9,1373.2,52.1,1372.5,44.7z"/>
					<path class="st2" d="M1354.7,63.6c-12-0.3-15.6,4.5-18.2,8.4l0-0.1c0,0-0.1,0.1-0.2,0.3c0,0.1-0.1,0.1-0.1,0.2c0,0,0,0.1,0,0.1
						c-0.7,1.3-2.1,5.2-3.2,14.5l0,0c0,0-1.2,7.9-1.6,9.7c-0.3,1.5-0.6,2.9-1,4.3c-2.7,11.3-4.8,23-14.3,34.9
						c-8.8,11.1-21.3,18.3-31.5,22.6c-4.5,1.9-11.1,3.6-17,4.1c-5.7,0.5-13.3-0.9-15.4,3.6c-2.6,5.8,6.8,14.2,13.2,17.7
						c11.7,6.6,26.4,8.5,38.1,5.9c19.3-4.3,18.6-6.9,22.8-8.8c11.3-8.5,25.8-18,36.3-35.3c6.9-11.4,11.8-23.6,16.3-34.8
						c2.2-5.4,5.2-12.1,6.7-18.3c0.3-1.2,0.5-2.4,0.6-3.6C1388.3,63.6,1354.7,63.6,1354.7,63.6z"/>
				</g>
			</g>
		</g>
	</g>
	<g>
		<g>
			<path class="st3" d="M1565.2,102.3v15.1h-58.3v-12.5l18.7-19.3c16.1-16.5,20.4-22.1,20.4-30c0-5.7-3.7-12.1-11.8-12.1
				c-6.2,0-12.7,3.5-18.4,9.2l-10-11c11.2-10.3,19.5-13.4,28.8-13.4c18.3,0,29.6,11.3,29.6,27.2c0,11.1-8.2,20.2-22.7,36.4
				l-9.2,10.4H1565.2z"/>
			<path class="st3" d="M1605.3,28.1c23.4,0,32.1,20.7,32.3,44.8c0,23.9-8.9,46-32.4,46c-23.3-0.1-32.3-22.7-32.3-46
				C1572.9,48.1,1581.9,28.1,1605.3,28.1z M1605,104.2c11.8,0,15-14.1,15-31.4c0-18.1-3.4-30-14.7-30c-11.4,0-14.9,11.8-14.9,29.8
				C1590.4,90.1,1593.4,104.2,1605,104.2z"/>
			<path class="st3" d="M1705.8,102.3v15.1h-58.3v-12.5l18.7-19.3c16.1-16.5,20.4-22.1,20.4-30c0-5.7-3.7-12.1-11.8-12.1
				c-6.2,0-12.7,3.5-18.4,9.2l-10-11c11.2-10.3,19.5-13.4,28.8-13.4c18.3,0,29.6,11.3,29.6,27.2c0,11.1-8.2,20.2-22.7,36.4
				l-9.2,10.4H1705.8z"/>
			<path class="st3" d="M1745.9,28.1c23.4,0,32.1,20.7,32.3,44.8c0,23.9-8.9,46-32.4,46c-23.3-0.1-32.3-22.7-32.3-46
				C1713.6,48.1,1722.5,28.1,1745.9,28.1z M1745.6,104.2c11.8,0,15-14.1,15-31.4c0-18.1-3.4-30-14.7-30c-11.4,0-14.9,11.8-14.9,29.8
				C1731,90.1,1734,104.2,1745.6,104.2z"/>
		</g>
		<g>
			<polygon class="st3" points="18.9,99 152.6,91.7 237.1,99 248.8,194.1 240.2,246.6 185.2,256.6 192.8,187.4 186.6,143.4 
				62.3,147.9 25,152.7 			"/>
			<polygon class="st3" points="86,183.8 85.5,245.7 74.6,288.7 21.7,296.3 32.6,346.8 150.5,329.1 292,301.5 292,252.2 
				185.4,274.6 133.8,281.5 131.8,243.1 132.1,179.1 			"/>
			<polygon class="st3" points="280.5,97.8 288.7,239 287.5,374.1 338.9,369.4 349.2,227.4 346.6,163 347.7,90.4 			"/>
			<polygon class="st3" points="450.2,129.5 479.2,145.7 452.8,198.4 484.9,223.2 515,240.4 500.2,270 447.8,243.5 433.9,229.9 
				397.2,292.7 366.6,278.4 412.4,182.9 			"/>
			<polygon class="st3" points="541.4,129.5 536.8,246.5 532.4,279.3 568.5,274.1 577.5,237 625.7,228.9 630.5,211.1 629.7,187 
				576.8,198.5 586.2,128.3 			"/>
			<polygon class="st3" points="440.8,368.2 529,368.1 601.5,363.1 596.4,326.2 495.5,330.4 499.3,290.9 466.9,295.2 446.2,293.7 
				449.4,313.5 			"/>
			<polygon class="st3" points="715.2,152.7 791.1,144.7 899.6,148.7 899.6,197.4 880.2,283.1 927.7,283.1 958.4,150 958.4,83.6 
				799.1,83.6 705.4,98.7 			"/>
			<polygon class="st3" points="788.6,201.5 833.4,197.8 831.9,256.3 826.9,315.6 987.9,309.1 986.1,336.1 972.6,350.1 888.2,361.9 
				836.7,358 789.6,368.2 684.9,365.7 684.9,327 773.9,321.6 783.1,259.6 			"/>
			<polygon class="st3" points="1131.1,364.9 1083.5,365.7 1087.1,324.1 1087.2,289.9 998.8,288.1 1001.3,261.1 1011.9,251.7 
				1074.8,246.7 1112.9,251.5 1148.1,246.1 1225.6,252.1 1224,287.5 1136.8,287.7 1131.5,323.7 			"/>
			<polygon class="st3" points="1087.7,83.4 1095,134.4 1127.5,139.3 1128.6,111.2 1125.2,85.8 			"/>
			<polygon class="st3" points="1019.7,156.8 1054,158.2 1089.6,160.8 1020.2,206.5 1040,237.3 1087.6,212.3 1112.8,199.5 
				1195,230.9 1212.2,201.7 1134.1,161.5 1209.3,151.5 1209.3,119.2 1111.2,122.1 1019.7,122.1 			"/>
			<polygon class="st3" points="1736.1,137 1738.2,255.1 1734.1,364.5 1768.3,362.2 1778.6,247.9 1778.5,199.3 1780.9,133 			"/>
			<polygon class="st3" points="1715,346.3 1720,204 1724.6,154.7 1683.6,156.2 1684.4,215 1636.5,222 1639.8,244.7 1637.2,258.7 
				1676.8,259.2 1666.6,347.6 			"/>
			<polygon class="st3" points="1502.4,212.4 1528.2,212.4 1551.4,213.8 1496.6,301.8 1527.5,327.7 1553.5,289 1574.5,257.7 
				1627.8,322.9 1653.5,292.6 1592.6,212.8 1645,205 1645,159.8 1571.3,161.6 1502.4,163.8 			"/>
			<polygon class="st3" points="1271.3,307.7 1313.7,303.7 1389.2,305.7 1389.2,322.2 1378.4,365.1 1422.8,365.1 1440,298.6 
				1440,265.3 1318.2,265.3 1265.8,272.9 			"/>
			<polygon class="st3" points="1383.1,277.9 1335,279.5 1337.8,240.3 1337.3,244.8 1247.8,244.5 1249.9,219.1 1260.4,210.1 
				1323.9,204.3 1362.5,208.3 1398.1,202.6 1476.5,207 1475.6,240.3 1387.4,241.9 1382.7,239.2 			"/>
			<g>
				<path class="st3" d="M1466.4,168.6l-83.7-40c-5.3,10.7-12.9,23.2-23.6,37.2l84.6,30L1466.4,168.6z"/>
				<path class="st3" d="M1255,86.9v34.7l36.9,1.4l22.7,1.6c3.9-7.3,7.9-19,10.3-37.8H1255z"/>
				<path class="st3" d="M1459,116.4V84.1l-63.8,1.7c-0.1,6.4-1.8,20-11.2,39.8L1459,116.4z"/>
			</g>
			<path class="st4" d="M1372.5,47.7c-0.7-7.5-0.5-19.4-5.6-24.2c-8.3-7.8-21.8-3.3-27.1,5.8c-1.6,4.1,0,6.8,4.7,8.5
				c4.7,0.9,9.1-3.9,13.2-5.6c3.6,8.7,5.1,23.5-0.2,34.6c4.1,0.4,12.5,4.4,18.1,6.2C1373.2,66.9,1373.2,55.1,1372.5,47.7z"/>
			<path class="st5" d="M1354.7,66.6c-12-0.3-15.6,4.5-18.2,8.4l0-0.1c0,0-0.1,0.1-0.2,0.3c0,0.1-0.1,0.1-0.1,0.2c0,0,0,0.1,0,0.1
				c-0.7,1.3-2.1,5.2-3.2,14.5l0,0c0,0-1.2,7.9-1.6,9.7c-0.3,1.5-0.6,2.9-1,4.3c-2.7,11.3-4.8,23-14.3,34.9
				c-8.8,11.1-21.3,18.3-31.5,22.6c-4.5,1.9-11.1,3.6-17,4.1c-5.7,0.5-13.3-0.9-15.4,3.6c-2.6,5.8,6.8,14.2,13.2,17.7
				c11.7,6.6,26.4,8.5,38.1,5.9c19.3-4.3,18.6-6.9,22.8-8.8c11.3-8.5,25.8-18,36.3-35.3c6.9-11.4,11.8-23.6,16.3-34.8
				c2.2-5.4,5.2-12.1,6.7-18.3c0.3-1.2,0.5-2.4,0.6-3.6C1388.3,66.6,1354.7,66.6,1354.7,66.6z"/>
		</g>
	</g>
</g>
</svg>
