<?xml version="1.0" encoding="utf-8"?>
<!-- Generator: Adobe Illustrator 22.0.1, SVG Export Plug-In . SVG Version: 6.00 Build 0)  -->
<svg version="1.1" id="_x3C_Layer_x3E_" xmlns="http://www.w3.org/2000/svg" xmlns:xlink="http://www.w3.org/1999/xlink" x="0px"
	 y="0px" viewBox="0 0 213 211" style="enable-background:new 0 0 213 211;" xml:space="preserve">
<style type="text/css">
	.st0{fill:#034EA2;}
	.st1{fill:#009494;}
	.st2{fill:#FAA61A;}
	.st3{fill:#FFFFFF;}
</style>
<g>
	<path class="st0" d="M105.7,2.5C49.1,2.5,3.2,48.4,3.2,105c0,56.6,45.9,102.5,102.5,102.5c56.6,0,102.5-45.9,102.5-102.5
		C208.1,48.4,162.3,2.5,105.7,2.5z M105.7,175.8c-39.1,0-70.8-31.7-70.8-70.8c0-39.1,31.7-70.8,70.8-70.8
		c39.1,0,70.8,31.7,70.8,70.8C176.5,144.1,144.8,175.8,105.7,175.8z"/>
	<path d="M88.5,150l0.8-1.4h3V162h-1.5v-12H88.5z"/>
	<path d="M88.8,150.2l0.8-1.4l-0.3,0.2h3l-0.4-0.4V162l0.4-0.4h-1.5l0.4,0.4v-12v-0.4h-0.4h-2.2L88.8,150.2z M90.4,150v12v0.4h0.4
		h1.5h0.4V162v-13.4v-0.4h-0.4h-3h-0.2l-0.1,0.2l-0.8,1.4l-0.3,0.5h0.6h2.2L90.4,150z"/>
	<path d="M101.4,149.8c1.7,0,3.2,1.4,3.2,3.1c0,1.7-1.4,3.1-3.2,3.1c-1.8,0-3.2-1.4-3.2-3.1C98.2,151.2,99.6,149.8,101.4,149.8z
		 M100.3,162.3l4.5-6.1c0.7-1,1.3-2,1.3-3.2c0-2.5-2.1-4.6-4.7-4.6c-2.6,0-4.7,2-4.7,4.6c0,2.4,1.9,4.4,4.4,4.4
		c0.4,0,0.8-0.1,1.2-0.2l0,0l-3.1,4.2L100.3,162.3z"/>
	<path d="M101.4,150.2c1.5,0,2.8,1.2,2.8,2.8c0,1.5-1.2,2.7-2.8,2.7c-1.6,0-2.8-1.2-2.8-2.7C98.6,151.4,99.8,150.2,101.4,150.2z
		 M97.8,152.9c0,1.9,1.6,3.5,3.5,3.5c2,0,3.5-1.5,3.5-3.5c0-1.9-1.6-3.5-3.5-3.5C99.4,149.4,97.8,151,97.8,152.9z"/>
	<path d="M100.6,162.5l4.5-6.1c0.6-0.8,1.3-2,1.3-3.4c0-2.7-2.3-4.9-5.1-4.9c-2.8,0-5.1,2.2-5.1,4.9c0,2.7,2.1,4.8,4.8,4.8
		c0.4,0,0.8-0.1,1.3-0.2l-0.4-0.1l0,0l0-0.5l-3.1,4.2l-0.2,0.3l0.3,0.2l1.1,0.8l0.3,0.2L100.6,162.5z M99.4,161.7l3.1-4.2l0.2-0.2
		l-0.2-0.2l0,0l-0.2-0.2l-0.2,0.1c-0.4,0.1-0.7,0.2-1.1,0.2c-2.3,0-4-1.8-4-4.1c0-2.3,1.9-4.2,4.3-4.2c2.4,0,4.3,1.9,4.3,4.2
		c0,1-0.4,1.9-1.2,3l-4.5,6.1l0.5-0.1l-1.1-0.8L99.4,161.7z"/>
	<path d="M107,150v-1.4h10l-7.3,13.6l-1.2-0.7l5.9-11.5H107z"/>
	<path d="M107.3,150v-1.4L107,149h10l-0.3-0.5l-7.3,13.6l0.5-0.1l-1.2-0.7l0.1,0.5l5.9-11.5l0.3-0.5h-0.6H107L107.3,150z
		 M114.1,149.9l-5.9,11.5l-0.2,0.3l0.3,0.2l1.2,0.7l0.3,0.2l0.2-0.3l7.3-13.6l0.3-0.5H117h-10h-0.4v0.4v1.4v0.4h0.4h7.4L114.1,149.9
		z"/>
	<path d="M121.8,149.8c1.8,0,3.2,1.4,3.2,3.1c0,1.7-1.4,3.1-3.2,3.1c-1.8,0-3.2-1.4-3.2-3.1C118.6,151.2,120,149.8,121.8,149.8z
		 M120.7,162.3l4.5-6.1c0.7-1,1.3-2,1.3-3.2c0-2.5-2.1-4.6-4.7-4.6c-2.6,0-4.7,2-4.7,4.6c0,2.4,1.9,4.4,4.4,4.4
		c0.4,0,0.8-0.1,1.2-0.2l0,0l-3.1,4.2L120.7,162.3z"/>
	<path d="M121.8,150.2c1.5,0,2.8,1.2,2.8,2.8c0,1.5-1.2,2.7-2.8,2.7c-1.6,0-2.8-1.2-2.8-2.7C119,151.4,120.2,150.2,121.8,150.2z
		 M118.2,152.9c0,1.9,1.6,3.5,3.5,3.5c2,0,3.5-1.5,3.5-3.5c0-1.9-1.6-3.5-3.5-3.5C119.8,149.4,118.2,151,118.2,152.9z"/>
	<path d="M121,162.5l4.5-6.1c0.6-0.8,1.3-2,1.3-3.4c0-2.7-2.3-4.9-5-4.9c-2.8,0-5,2.2-5,4.9c0,2.7,2.1,4.8,4.8,4.8
		c0.4,0,0.8-0.1,1.3-0.2l-0.4-0.1l0,0v-0.4l-3.1,4.2l-0.2,0.3l0.3,0.2l1.1,0.8l0.3,0.2L121,162.5z M119.9,161.7l3.1-4.2l0.2-0.2
		l-0.2-0.2l0,0l-0.2-0.2l-0.3,0.1c-0.4,0.1-0.7,0.2-1.1,0.2c-2.3,0-4-1.8-4-4.1c0-2.3,1.9-4.2,4.3-4.2c2.4,0,4.3,1.9,4.3,4.2
		c0,1-0.4,1.9-1.2,3l-4.5,6.1l0.5-0.1l-1.1-0.8L119.9,161.7z"/>
	<g>
		<path class="st1" d="M101.8,107.5c0,0,4.1,1.2,9.6,2.2c0,0,16-14,22.5-28.2c6.5-14.2-3.7-17.7-35.3-9.7c0,0,33.5-12.7,49-11.5
			c15.5,1.2,11.6,16.7,10.4,20.4c-1.2,3.7-5.8,16-15.7,28.4c-9.8,12.4-22.6,25-29.5,29c0,0-20.3-20-21.1-20.2
			c-0.8-0.2,4.7-7.7,4.7-7.7L101.8,107.5z"/>
		<path class="st2" d="M94.3,75.1c0,2.8-2.3,5.1-5.1,5.1c-2.8,0-5.1-2.3-5.1-5.1c0-2.8,2.3-5.1,5.1-5.1C92,70.1,94.3,72.3,94.3,75.1
			z"/>
		<path class="st0" d="M44.6,95.8c0,0,16.2-3.7,22.2,12.7c0,0,14.8-3.3,26.1-22.4c0,0-1,3.7-2,5.3c0,0,3.3-5.7,3.8-7.1
			c0,0,0.2,1-1.2,4.1c0,0,2-2.6,2.2-3.3c0,0-1.6,6.2-3.2,9.9c0,0,3.7-5.3,4.9-10c0,0-0.1,2.9-0.8,4.6c0,0,2.9-4.7,3.5-6.4
			c0,0-0.7,5.4-2.2,8.2c0,0,4-6.3,5-8.3v0.8l0.4-0.3c0,0-1.5,3.9-2,4.4c0,0,3.1-4.5,3.5-5.7c0,0-0.2,1.5-0.6,2.8
			c0,0,1.7-2.1,2.3-3.9l0.1,1.5c0,0,2.9-4.7,3.6-6.8l0.2,0.8c0,0-3.3,7.7-4.5,9.5c0,0,4.1-5.4,5.5-9.7c0,0,0.2,2.3-0.2,3.9
			c0,0,2-4.7,2.1-6l0.3,1l-0.3,1.2l-0.2,1l0.1,0.9l-0.6,2c0,0,2.4-4.2,2.9-7.1c0.5-2.8,0-0.2,0-0.2l0.3,0.9l-0.3,1.2l-1,2.4h0.4
			l0.2-0.4c0,0,0.6,0.2-0.1,1.7c-0.7,1.6-5.6,14.9-12.6,22.4c0,0,2.9-3.2,3.3-3.7c0.4-0.5-2.7,4.3-2.7,4.3s10.6-14.5,13.6-24.9
			l0.2,1c0,0,1.7-3.4,1.7-4.3c0,0,0.4,1.1,0.2,1.8c-0.2,0.7-2.5,9-6.3,15.3c0,0,5.5-9.1,7.4-16.4l0.3,1.2l-0.5,1.5v0.5l-1.3,3.5
			l-0.1,1.4c0,0-7.1,17.2-19.6,30.5c-12.5,13.3-26.9,23.1-33.7,24.6c0,0-14.7-7.2-15.1-20.1C49.9,103.9,51.3,105.2,44.6,95.8z"/>
	</g>
	<path class="st3" d="M33.7,63.4c-0.8-1.4-2.1-2.5-3.8-3.1c-3.5-1.1-7.3,0.8-8.4,4.3c-1.1,3.5,0.8,7.3,4.3,8.4
		c1.7,0.5,3.4,0.4,4.8-0.3l-1.3,3.9l3,0.9l2.2-6.9l3.5,1.1l1.1-3.3l-3.5-1.1l2.2-6.9l-3-0.9L33.7,63.4z M31.1,67.7
		c-0.6,1.8-2.4,2.7-4.2,2.2c-1.8-0.6-2.7-2.4-2.2-4.2c0.6-1.7,2.4-2.7,4.2-2.2C30.7,64.1,31.7,65.9,31.1,67.7z"/>
	<g>
		<path class="st3" d="M58,42.3l-1.8-2.5l11.3-8.2c0,0,1.3-0.9,2.2,0.3l2.7,3.8l-2.6,1.9L67.9,35L58,42.3z"/>
		<path class="st3" d="M52.2,30.5l2.4-1.7c0,0,2.2,5.6,7.9,1l1.5,2c0,0-3.6,3.9-7.1,2.9c0,0,0.2,2.4-2.9,4.7l-1.6-2.2
			C52.5,37.2,55.8,34.6,52.2,30.5z"/>
		<path class="st3" d="M57.6,26.7l4.4-3.2c0,0,1.1-0.6,2,0.7c0.9,1.3,3.7,5.1,3.7,5.1l-2.8,2L61.9,27l-2.6,1.9L57.6,26.7z"/>
	</g>
	<path class="st3" d="M113.8,12.1v4.4h-1v-4.4h-2.9v11.7h-6.1v-8.4h4.9v-3.2h-8V25c0,0-0.3,2.1,3,2.1c2.3,0,4.8,0,6.2,0v1.2h2.9
		v-8.5h1v8.5h2.9V12.1H113.8z"/>
	<g>
		<path class="st3" d="M160.4,30.3l-3.2-2.2l0.9-1.2l-3.2-2.2l-0.9,1.2l-3.2-2.3l-1.7,2.4l1.1,0.7c-0.4,0.3-0.8,0.7-1.1,1.1
			c-1.5,2.1-1,5,1.2,6.5c2.1,1.5,5,1,6.5-1.1c0.3-0.4,0.5-0.9,0.7-1.4l1.2,0.9L160.4,30.3z M152.1,31.9c-0.7-0.5-0.9-1.4-0.4-2.1
			c0.5-0.7,1.4-0.9,2.1-0.4c0.7,0.5,0.9,1.5,0.4,2.1C153.7,32.2,152.8,32.4,152.1,31.9z"/>
		<path class="st3" d="M145.7,32l11.4,8c0,0,1.6,0.7,0.4,2.4c-1.2,1.8-2.6,3.7-2.6,3.7l-2.8-1.9l1.9-2.8l-10.1-7L145.7,32z"/>
		<path class="st3" d="M159.1,40l-2.8-1.9l4.5-6.4c0,0,0.3-0.9,2.1,0.3c1.7,1.2,3.4,2.4,3.4,2.4l-1.7,2.4l-2.2-1.5L159.1,40z"/>
	</g>
	<path class="st3" d="M182.1,77.9c2.2-1,9.3-4.4,9.9-4.7c0.7-0.3,0-2,0-2l-6-12.5l-2.6,1.3l5.4,11.2l-8.1,3.9l-1-2.1l6.2-2.9
		l-1.5-3.1l-6.1,2.9l-0.7-1.5l6.1-3l-1.5-3.2l-6.2,3l-1-2.1l-2.8,1.3l7.9,16.4l2.8-1.3L182.1,77.9z"/>
	<g>
		<path class="st3" d="M20.6,137.6l13.4-0.4l-9.4,9.6l12.3-0.9l0.8,1.7l-17.3,1.1l9.4-9.6l-13.4,0.4l12.5-12l0.8,1.7L20.6,137.6z"/>
		<path class="st3" d="M41.8,154.7c2.2,2.8,1.6,6.8-1.2,8.9c-2.8,2.1-6.8,1.6-8.9-1.1c-2.1-2.8-1.5-6.8,1.2-8.9
			C35.7,151.5,39.7,151.9,41.8,154.7z M43.1,153.8c-2.7-3.5-7.7-4.2-11.3-1.5c-3.5,2.7-4.1,7.7-1.4,11.2c2.7,3.5,7.7,4.2,11.2,1.5
			C45.2,162.3,45.8,157.3,43.1,153.8z"/>
		<path class="st3" d="M53.7,167.2c2.7,2.3,3,6.3,0.7,9c-2.2,2.7-6.3,3.1-9,0.8c-2.7-2.3-3-6.3-0.7-9C47,165.3,51,164.9,53.7,167.2z
			 M54.8,165.9c-3.4-2.8-8.5-2.4-11.3,1c-2.9,3.4-2.3,8.5,1,11.3c3.4,2.8,8.4,2.5,11.3-0.9C58.6,173.9,58.1,168.8,54.8,165.9z"/>
		<path class="st3" d="M67.1,178.2c0-1.2-0.3-2.1-1.5-2.8c-1.2-0.7-2.7-0.4-3.4,0.8c-0.7,1.2,0.2,2.4,0.9,3.3l0.7,0.9
			c1.3,1.8,2.3,3.5,1.1,5.6c-1.4,2.4-4.3,3.1-6.6,1.7c-2.2-1.2-3-3.5-2.2-5.9l1.7,0.4c-0.6,1.5-0.2,3.2,1.3,4c1.4,0.8,3.4,0.5,4.3-1
			c0.9-1.6,0-2.8-1-4.1l-0.6-0.8c-1.2-1.6-2.1-3.2-0.9-5.1c1.2-2.1,3.7-2.4,5.7-1.3c1.5,0.8,2.3,2.3,2.3,4.1L67.1,178.2z"/>
		<path class="st3" d="M70.5,186.7c-0.4,1.1-0.9,2.3-0.6,3.5c0.3,1.1,1.3,2.1,2.4,2.5c1,0.4,2.3,0.3,3.3-0.2c1.1-0.6,1.5-1.9,2-3
			l3.3-8.6l1.6,0.6l-3.4,9.1c-0.6,1.6-1.2,2.8-2.8,3.5c-1.4,0.7-3.1,0.7-4.5,0.2c-1.4-0.5-2.6-1.6-3.2-2.9c-0.8-1.7-0.5-3.1,0.2-4.7
			l3.4-9.1l1.6,0.6L70.5,186.7z"/>
		<path class="st3" d="M93.2,183.7l2.3,0.5l-8.5,5.6l5.7,9.6l-2.3-0.5l-4.8-8.2l-0.5,0.3l-1.3,6.5l-1.7-0.3l3.1-15.2l1.7,0.3
			l-1.3,6.5L93.2,183.7z"/>
		<path class="st3" d="M111,193.7c0.1,1.1,0.2,2.5,1.1,3.4c0.8,0.9,2.1,1.2,3.3,1.1c1.1-0.1,2.2-0.8,2.9-1.7
			c0.7-1.1,0.5-2.4,0.4-3.6l-1-9.2l1.7-0.2l1.1,9.6c0.2,1.7,0.2,3-0.9,4.4c-0.9,1.3-2.4,2-3.9,2.2c-1.5,0.2-3-0.2-4.1-1.1
			c-1.5-1.1-1.8-2.5-2-4.3l-1.1-9.6l1.7-0.2L111,193.7z"/>
		<path class="st3" d="M121.7,182.5L137,191l-3.6-11.5l1.6-0.5l4.8,15.4l-15.3-8.5l3.5,11.4l-1.6,0.5L121.7,182.5z"/>
		<path class="st3" d="M145.8,190.8l-1.6,0.7l-6.6-14l1.6-0.7L145.8,190.8z"/>
		<path class="st3" d="M152.3,183.1l-2.4-12.4l1.6-1l3.2,17.3l-13.9-10.7l1.6-1L152.3,183.1z"/>
		<path class="st3" d="M152.6,168.8l6.2-5.1l1,1.2l-4.8,4l3,3.5l4.7-3.9l1,1.2l-4.7,3.9l3.9,4.7l4.8-4l1,1.2l-6.2,5.1L152.6,168.8z"
			/>
		<path class="st3" d="M163,161.6l0.3-0.4c1.4-1.5,2.8-2.7,4.7-1c1.8,1.6,0.7,3.3-0.6,4.8l-0.4,0.4L163,161.6z M168.3,166.4l0.3-0.3
			l8.2,1.1l1.4-1.6l-8.4-1c1.4-1.9,1.2-4.1-0.6-5.7c-2.6-2.4-5-0.8-7,1.3l-1.5,1.6l11.4,10.4l1.2-1.3L168.3,166.4z"/>
		<path class="st3" d="M174.3,149.5c-1.2-0.1-2.2,0.2-2.9,1.3c-0.8,1.1-0.6,2.7,0.5,3.5c1.1,0.7,2.4,0,3.4-0.6l1-0.6
			c1.8-1.2,3.6-2,5.7-0.6c2.2,1.5,2.7,4.5,1.2,6.7c-1.4,2.1-3.8,2.7-6,1.7l0.6-1.7c1.4,0.7,3.2,0.4,4.1-0.9c0.9-1.4,0.7-3.4-0.7-4.3
			c-1.5-1-2.8-0.2-4.1,0.6l-0.9,0.6c-1.7,1-3.3,1.8-5.2,0.5c-2-1.3-2.1-3.9-0.8-5.8c1-1.4,2.5-2.1,4.2-2L174.3,149.5z"/>
		<path class="st3" d="M188.4,149.8l-0.8,1.5L174,144l0.8-1.5L188.4,149.8z"/>
		<path class="st3" d="M192.1,141.9l-0.7,1.6l-12.8-5.4l-1.5,3.4l-1.5-0.6l3.6-8.5l1.5,0.6l-1.5,3.5L192.1,141.9z"/>
		<path class="st3" d="M179.5,132.3l0.5-1.9l7.7-2l-5.6-5.6l0.5-1.9l7.2,7.2l6.4,1.8l-0.5,1.7l-6.4-1.7L179.5,132.3z"/>
	</g>
	<path class="st3" d="M24.2,101.3c0,2.1-1.7,3.9-3.9,3.9c-2.1,0-3.9-1.8-3.9-3.9c0-2.2,1.7-3.9,3.9-3.9
		C22.5,97.4,24.2,99.1,24.2,101.3z"/>
	<path class="st3" d="M195.7,101.3c0,2.1-1.7,3.9-3.9,3.9c-2.1,0-3.9-1.8-3.9-3.9c0-2.2,1.7-3.9,3.9-3.9
		C193.9,97.4,195.7,99.1,195.7,101.3z"/>
</g>
</svg>
