<?xml version="1.0" encoding="utf-8"?>
<!-- Generator: Adobe Illustrator 22.0.1, SVG Export Plug-In . SVG Version: 6.00 Build 0)  -->
<svg version="1.1" id="레이어_1" xmlns="http://www.w3.org/2000/svg" xmlns:xlink="http://www.w3.org/1999/xlink" x="0px"
	 y="0px" viewBox="0 0 267.1 47.5" style="enable-background:new 0 0 267.1 47.5;" xml:space="preserve">
<style type="text/css">
	.st0{fill:#008D90;}
	.st1{fill:#F6AB00;}
	.st2{fill:#004098;}
</style>
<g>
	<path class="st0" d="M36.2,29.7c0,0,2.3,0.7,5.5,1.2c0,0,9.1-8,12.8-16.1c3.7-8.1-2.1-10.1-20.1-5.6c0,0,19.1-7.2,28-6.6
		c8.8,0.7,6.6,9.5,5.9,11.6c-0.7,2.1-3.3,9.1-8.9,16.2c-5.6,7.1-12.9,14.3-16.8,16.5c0,0-11.6-11.4-12.1-11.5
		c-0.5-0.1,2.7-4.4,2.7-4.4L36.2,29.7z"/>
	<path class="st1" d="M31.9,11.3c0,1.6-1.3,2.9-2.9,2.9c-1.6,0-2.9-1.3-2.9-2.9s1.3-2.9,2.9-2.9C30.6,8.4,31.9,9.7,31.9,11.3z"/>
	<path class="st2" d="M3.5,23c0,0,9.2-2.1,12.7,7.2c0,0,8.5-1.9,14.9-12.8c0,0-0.6,2.1-1.1,3c0,0,1.9-3.3,2.2-4.1
		c0,0,0.1,0.6-0.7,2.3c0,0,1.1-1.5,1.3-1.9c0,0-0.9,3.5-1.8,5.7c0,0,2.1-3,2.8-5.7c0,0,0,1.7-0.4,2.6c0,0,1.7-2.7,2-3.7
		c0,0-0.4,3.1-1.2,4.7c0,0,2.3-3.6,2.8-4.8v0.5l0.2-0.2c0,0-0.9,2.2-1.1,2.5c0,0,1.8-2.6,2-3.3c0,0-0.1,0.9-0.3,1.6
		c0,0,1-1.2,1.3-2.2l0,0.9c0,0,1.7-2.7,2-3.9l0.1,0.4c0,0-1.9,4.4-2.6,5.4c0,0,2.3-3.1,3.1-5.6c0,0,0.1,1.3-0.1,2.2
		c0,0,1.1-2.7,1.2-3.4l0.1,0.6l-0.2,0.7l-0.1,0.6l0,0.5l-0.3,1.1c0,0,1.4-2.4,1.7-4c0.3-1.6,0-0.1,0-0.1l0.1,0.5l-0.1,0.7l-0.6,1.4
		h0.2l0.1-0.2c0,0,0.3,0.1,0,1c-0.4,0.9-3.2,8.5-7.2,12.8c0,0,1.7-1.8,1.9-2.1c0.2-0.3-1.5,2.5-1.5,2.5s6.1-8.3,7.8-14.2l0.1,0.6
		c0,0,1-2,1-2.4c0,0,0.2,0.6,0.1,1.1c-0.1,0.4-1.4,5.1-3.6,8.7c0,0,3.1-5.2,4.2-9.4l0.2,0.7l-0.3,0.9v0.3l-0.7,2l0,0.8
		c0,0-4,9.8-11.2,17.4C27.5,40.5,19.3,46,15.4,46.9c0,0-8.4-4.1-8.6-11.5C6.5,27.7,7.4,28.4,3.5,23z"/>
</g>
<path class="st2" d="M116.8,34.5v-6.2h27.7c0,0,3.1,0,3.1,3.1v9.2h-6.4v-6.2H116.8z"/>
<path class="st2" d="M121.3,9h5.8c0,0-3,11.6,11.6,10.8v5c0,0-10.3,2.1-14.7-3.5c0,0-2.4,4.1-10.1,4.1V20
	C113.8,20,122.2,19.6,121.3,9z"/>
<path class="st2" d="M134.4,9.1h10.9c0,0,2.4,0.4,2.4,3.5c0,3.2,0,12.5,0,12.5h-6.9V14.7h-6.4V9.1z"/>
<path class="st2" d="M178.9,9.5v8.8h-2V9.5h-5.8v23.2H159V16h9.7V9.7h-15.9v25.4c0,0-0.6,4.1,6,4.1c4.5,0,9.6,0,12.3,0v2.4h5.8V24.8
	h2v16.8h5.8V9.5H178.9z"/>
<path class="st2" d="M212.9,9.3h-7.7v-3h-7.7v3h-7.8v5.8h2.6c-0.3,1-0.5,2-0.5,3.1c0,5.1,4.2,9.2,9.3,9.2c5.2,0,9.3-4.1,9.3-9.2
	c0-1.1-0.2-2.1-0.5-3.1h3V9.3z M201.2,21.3c-1.7,0-3.1-1.4-3.1-3.1c0-1.7,1.4-3.1,3.1-3.1c1.7,0,3,1.4,3,3.1
	C204.2,20,202.9,21.3,201.2,21.3z"/>
<path class="st2" d="M191,28.7h27.7c0,0,3.4-0.7,3.4,3.5c0,4.3,0,9,0,9h-6.7v-6.7H191V28.7z"/>
<path class="st2" d="M222,26.5h-6.7V11.1c0,0-0.5-1.9,3.6-1.9c4.2,0,8.3,0,8.3,0v5.9H222V26.5z"/>
<path class="st2" d="M263.4,33c0-4.8,0-20.4,0-21.7c0-1.6-3.6-1.7-3.6-1.7h-27.4v5.7h24.7V33h-4.5V19.4h-6.9V33h-3.3V19.4h-6.9V33
	h-4.7V39h36.1V33H263.4z"/>
<path class="st2" d="M101.9,27.8c2.2-2.4,3.5-5.5,3.5-9c0-7.3-5.9-13.3-13.3-13.3c-7.3,0-13.3,5.9-13.3,13.3c0,3.5,1.3,6.6,3.5,9
	h-8.2V34h14.4v7.3h6.9V34h14.4v-6.2H101.9z M92.2,25.4c-3.6,0-6.6-2.9-6.6-6.6c0-3.6,2.9-6.6,6.6-6.6c3.6,0,6.6,2.9,6.6,6.6
	C98.7,22.5,95.8,25.4,92.2,25.4z"/>
</svg>
